<svg  viewBox="0 0 14 15" fill="none" xmlns="http://www.w3.org/2000/svg">
<path d="M6.8312 0.25C5.76245 0.25 3.11871 0.3625 1.71246 1.7125C0.699955 2.66875 0.306205 4.13125 0.249955 5.875C0.137455 8.63125 0.756205 10.375 1.76871 11.275C1.9937 11.4438 2.55621 11.8937 3.62495 12.2312V13.6375C3.62495 13.6375 3.62496 14.2 3.96246 14.3125C4.01871 14.3125 4.07495 14.3688 4.1312 14.3688C4.4687 14.3688 4.74995 13.975 5.1437 13.5813C5.4812 13.1875 5.76245 12.9062 5.93121 12.625H7.1687C8.23745 12.625 10.8812 12.5125 12.2875 11.1625C13.3 10.15 13.6937 8.6875 13.6937 6.83125C13.75 6.55 13.75 6.2125 13.75 5.875C13.6937 3.79375 13.075 2.3875 12.2312 1.6C11.8937 1.31875 10.4312 0.25 7.28121 0.25H6.8312ZM6.71871 1.31875H7.22495C10.2062 1.31875 11.3312 2.275 11.4437 2.3875C12.1187 2.95 12.5125 4.1875 12.5687 5.81875V6.04375C12.625 6.38125 12.625 6.6625 12.625 6.83125C12.5687 8.51875 12.2312 9.64375 11.5562 10.375C10.375 11.4438 7.89995 11.5 7.22495 11.5H6.15621L5.2562 12.5125L4.6937 13.1312L4.5812 13.3C4.4687 13.4125 4.29995 13.6375 4.18745 13.6937V11.1625C3.06245 10.8812 2.61245 10.4875 2.49995 10.375C1.71245 9.7 1.26246 8.06875 1.37496 5.875V5.3125C1.48746 3.9625 1.82496 3.0625 2.38746 2.44375C3.56871 1.375 6.0437 1.31875 6.71871 1.31875ZM6.66245 2.55625C6.3812 2.55625 6.3812 2.95 6.66245 2.95C8.7437 2.95 10.5437 4.35625 10.5437 7C10.5437 7.28125 10.9375 7.28125 10.9375 7C10.9375 4.13125 9.02495 2.5 6.66245 2.55625ZM4.43327 3.07656C4.30582 3.06129 4.17744 3.09641 4.07552 3.17444C3.51302 3.45569 2.94996 4.01931 3.11871 4.63806C3.11871 4.63806 3.2312 5.14375 3.84995 6.2125C4.18745 6.71875 4.46871 7.16875 4.74996 7.50625C5.03121 7.9 5.4812 8.35 5.93121 8.6875C6.83121 9.41875 8.23745 10.15 8.8562 10.3187C9.4187 10.4875 10.0375 9.925 10.3187 9.3625C10.4312 9.1375 10.375 8.85625 10.15 8.6875C9.81246 8.35 9.24995 7.95625 8.8562 7.73125C8.57495 7.5625 8.23746 7.675 8.12496 7.84375L7.84371 8.18125C7.7312 8.35 7.44995 8.35 7.44995 8.35C5.5937 7.84375 5.08746 5.93125 5.08746 5.93125C5.08746 5.93125 5.08745 5.70625 5.2562 5.5375L5.59371 5.25625C5.76245 5.14375 5.87495 4.80625 5.7062 4.525C5.5937 4.35625 5.42495 4.01875 5.2562 3.85C5.08745 3.625 4.74996 3.23125 4.74996 3.23125C4.66461 3.14579 4.55313 3.09134 4.43327 3.07656ZM7.05621 3.68125C6.77496 3.625 6.71871 4.075 6.99996 4.075C8.57495 4.1875 9.47495 5.25625 9.4187 6.60625C9.36245 6.8875 9.81246 6.8875 9.81246 6.60625C9.8687 5.03125 8.8562 3.7375 7.05621 3.68125ZM7.22495 4.75C6.9437 4.69375 6.9437 5.14375 7.22495 5.14375C7.89995 5.14375 8.23746 5.5375 8.23746 6.2125C8.2937 6.49375 8.68746 6.49375 8.68746 6.2125C8.6312 5.3125 8.12495 4.75 7.22495 4.75Z" fill="black"/>
</svg>
